<mxfile host="Electron" modified="2025-08-11T23:55:04.194Z" agent="Mozilla/5.0 (Windows NT 10.0; Win64; x64) AppleWebKit/537.36 (KHTML, like Gecko) draw.io/21.6.8 Chrome/114.0.5735.289 Electron/25.5.0 Safari/537.36" version="21.6.8" etag="rON5ogYNGnDg1BzqSDvQ" type="device">
  <diagram name="Simple Neural Net" id="diagram1">
    <mxGraphModel dx="1036" dy="702" grid="1" gridSize="10" guides="1" tooltips="1" connect="1" arrows="1" fold="1" page="1" pageScale="1" pageWidth="850" pageHeight="1100" math="0" shadow="0">
      <root>
        <mxCell id="0" />
        <mxCell id="1" parent="0" />
        <mxCell id="_WSU7WrP7q1iSOvLgHSa-6" value="" style="ellipse;whiteSpace=wrap;html=1;aspect=fixed;fillColor=#BDE9F4;strokeColor=#0000FF;strokeWidth=4;" vertex="1" parent="1">
          <mxGeometry x="120" y="80" width="80" height="80" as="geometry" />
        </mxCell>
        <mxCell id="_WSU7WrP7q1iSOvLgHSa-7" value="&lt;font style=&quot;font-size: 34px&quot; face=&quot;Times New Roman&quot;&gt;x&lt;sub&gt;1&lt;/sub&gt;&lt;/font&gt;" style="text;html=1;strokeColor=none;fillColor=none;align=center;verticalAlign=middle;whiteSpace=wrap;rounded=0;fontColor=default;" vertex="1" parent="1">
          <mxGeometry x="40" y="100" width="60" height="40" as="geometry" />
        </mxCell>
        <mxCell id="_WSU7WrP7q1iSOvLgHSa-8" value="" style="ellipse;whiteSpace=wrap;html=1;aspect=fixed;fillColor=#BDE9F4;strokeColor=#0000FF;strokeWidth=4;" vertex="1" parent="1">
          <mxGeometry x="120" y="240" width="80" height="80" as="geometry" />
        </mxCell>
        <mxCell id="_WSU7WrP7q1iSOvLgHSa-9" value="&lt;font style=&quot;font-size: 34px&quot; face=&quot;Times New Roman&quot;&gt;x&lt;sub&gt;2&lt;/sub&gt;&lt;/font&gt;" style="text;html=1;strokeColor=none;fillColor=none;align=center;verticalAlign=middle;whiteSpace=wrap;rounded=0;fontColor=default;" vertex="1" parent="1">
          <mxGeometry x="40" y="260" width="60" height="40" as="geometry" />
        </mxCell>
        <mxCell id="_WSU7WrP7q1iSOvLgHSa-10" value="" style="ellipse;whiteSpace=wrap;html=1;aspect=fixed;fillColor=#BDE9F4;strokeColor=#0000FF;strokeWidth=4;" vertex="1" parent="1">
          <mxGeometry x="380" y="160" width="80" height="80" as="geometry" />
        </mxCell>
        <mxCell id="_WSU7WrP7q1iSOvLgHSa-11" value="" style="endArrow=classic;rounded=0;strokeColor=default;strokeWidth=2;labelBackgroundColor=none;fontColor=none;noLabel=1;" edge="1" parent="1" source="_WSU7WrP7q1iSOvLgHSa-6" target="_WSU7WrP7q1iSOvLgHSa-10">
          <mxGeometry width="50" height="50" relative="1" as="geometry">
            <mxPoint x="200" y="120" as="sourcePoint" />
            <mxPoint x="380" y="200" as="targetPoint" />
          </mxGeometry>
        </mxCell>
        <mxCell id="_WSU7WrP7q1iSOvLgHSa-12" value="" style="endArrow=classic;rounded=0;strokeColor=default;strokeWidth=2;labelBackgroundColor=none;fontColor=none;noLabel=1;" edge="1" parent="1" source="_WSU7WrP7q1iSOvLgHSa-8" target="_WSU7WrP7q1iSOvLgHSa-10">
          <mxGeometry width="50" height="50" relative="1" as="geometry">
            <mxPoint x="200" y="280" as="sourcePoint" />
            <mxPoint x="380" y="200" as="targetPoint" />
          </mxGeometry>
        </mxCell>
        <mxCell id="_WSU7WrP7q1iSOvLgHSa-13" value="&lt;font style=&quot;font-size: 28px&quot; face=&quot;Times New Roman&quot;&gt;w&lt;sub&gt;1&lt;/sub&gt;&lt;/font&gt;" style="text;html=1;strokeColor=none;fillColor=none;align=center;verticalAlign=middle;whiteSpace=wrap;rounded=0;fontColor=default;" vertex="1" parent="1">
          <mxGeometry x="260" y="125" width="60" height="30" as="geometry" />
        </mxCell>
        <mxCell id="_WSU7WrP7q1iSOvLgHSa-14" value="&lt;font style=&quot;font-size: 28px&quot; face=&quot;Times New Roman&quot;&gt;w&lt;sub&gt;2&lt;/sub&gt;&lt;/font&gt;" style="text;html=1;strokeColor=none;fillColor=none;align=center;verticalAlign=middle;whiteSpace=wrap;rounded=0;fontColor=default;" vertex="1" parent="1">
          <mxGeometry x="260" y="245" width="60" height="30" as="geometry" />
        </mxCell>
        <mxCell id="_WSU7WrP7q1iSOvLgHSa-15" value="&lt;font style=&quot;font-size: 34px&quot; face=&quot;Times New Roman&quot;&gt;g(w&lt;sub&gt;0&lt;/sub&gt; + w&lt;sub&gt;1&lt;/sub&gt;x&lt;sub&gt;1&lt;/sub&gt; + w&lt;sub&gt;2&lt;/sub&gt;x&lt;sub&gt;2&lt;/sub&gt;)&lt;/font&gt;" style="text;html=1;strokeColor=none;fillColor=none;align=left;verticalAlign=middle;whiteSpace=wrap;rounded=0;fontColor=default;" vertex="1" parent="1">
          <mxGeometry x="480" y="180" width="330" height="40" as="geometry" />
        </mxCell>
      </root>
    </mxGraphModel>
  </diagram>
</mxfile>
